<?xml version="1.0" encoding="UTF-8" standalone="no"?>
<svg
   xmlns:dc="http://purl.org/dc/elements/1.1/"
   xmlns:cc="http://creativecommons.org/ns#"
   xmlns:rdf="http://www.w3.org/1999/02/22-rdf-syntax-ns#"
   xmlns:svg="http://www.w3.org/2000/svg"
   xmlns="http://www.w3.org/2000/svg"
   xmlns:sodipodi="http://sodipodi.sourceforge.net/DTD/sodipodi-0.dtd"
   xmlns:inkscape="http://www.inkscape.org/namespaces/inkscape"
   width="136.85947mm"
   height="52.718285mm"
   viewBox="0 0 136.85947 52.718285"
   version="1.1"
   id="svg8"
   sodipodi:docname="logo.svg"
   inkscape:version="1.0.2 (e86c870879, 2021-01-15)">
  <defs
     id="defs2" />
  <sodipodi:namedview
     id="base"
     pagecolor="#ffffff"
     bordercolor="#666666"
     borderopacity="1.0"
     inkscape:pageopacity="0.0"
     inkscape:pageshadow="2"
     inkscape:zoom="1.979899"
     inkscape:cx="80.74868"
     inkscape:cy="63.377462"
     inkscape:document-units="mm"
     inkscape:current-layer="layer1"
     inkscape:document-rotation="0"
     showgrid="false"
     inkscape:window-width="2560"
     inkscape:window-height="1016"
     inkscape:window-x="1920"
     inkscape:window-y="0"
     inkscape:window-maximized="1"
     fit-margin-top="4"
     fit-margin-left="4"
     fit-margin-right="4"
     fit-margin-bottom="4" />
  <metadata
     id="metadata5">
    <rdf:RDF>
      <cc:Work
         rdf:about="">
        <dc:format>image/svg+xml</dc:format>
        <dc:type
           rdf:resource="http://purl.org/dc/dcmitype/StillImage" />
        <dc:title></dc:title>
      </cc:Work>
    </rdf:RDF>
  </metadata>
  <g
     inkscape:label="Capa 1"
     inkscape:groupmode="layer"
     id="layer1"
     transform="translate(-57.74134,-55.164128)">
    <g
       id="g1075"
       transform="matrix(1.1653395,0,0,1.1653395,-10.208285,-17.17587)">
      <path
         d="m 82.607197,102.45796 -2.20001,-2.17197 2.169583,-2.19127 -0.978164,-0.978165 -2.172759,2.200804 -2.198687,-2.170377 -0.969963,0.969963 2.201598,2.180165 -2.171171,2.19948 0.969963,0.96996 2.179373,-2.2008 2.192073,2.17038 z"
         id="path833"
         style="fill:#ff9955;stroke-width:0.264583" />
      <path
         d="m 72.366803,97.645724 c 1.458913,0 2.645833,1.18692 2.645833,2.645826 0,1.45892 -1.18692,2.64584 -2.645833,2.64584 -1.458912,0 -2.645833,-1.18692 -2.645833,-2.64584 0,-1.458906 1.186921,-2.645826 2.645833,-2.645826 z m 0,-0.529169 c -1.753394,0 -3.175,1.42161 -3.175,3.174995 0,1.7534 1.421606,3.175 3.175,3.175 1.753394,0 3.175,-1.4216 3.175,-3.175 0,-1.753386 -1.421606,-3.174995 -3.175,-3.174995 z"
         id="path844"
         style="fill:#ffffff;stroke-width:0.264583" />
      <path
         d="m 68.152196,102.45796 -2.20001,-2.17197 2.169583,-2.19127 -0.978164,-0.978165 -2.172759,2.200808 -2.198687,-2.170381 -0.969963,0.969963 2.201598,2.180165 -2.171171,2.19948 0.969963,0.96996 2.179373,-2.2008 2.192073,2.17038 z"
         id="path833-3"
         style="fill:#ff9955;stroke-width:0.264583" />
      <path
         d="m 68.121769,94.330521 -2.20001,-2.17197 2.169583,-2.19127 -0.978164,-0.978165 -2.172759,2.200808 -2.198687,-2.170381 -0.969963,0.969963 2.201598,2.180165 -2.171171,2.19948 0.969963,0.96996 2.179373,-2.2008 2.192073,2.17038 z"
         id="path833-3-6"
         style="fill:#ff9955;stroke-width:0.264583" />
      <path
         d="m 68.091342,86.952619 -2.20001,-2.17197 2.169583,-2.19127 -0.978164,-0.978165 -2.172759,2.200808 -2.198687,-2.170381 -0.969963,0.969963 2.201598,2.180165 -2.171171,2.19948 0.969963,0.96996 2.179373,-2.2008 2.192073,2.17038 z"
         id="path833-3-6-7"
         style="fill:#ff9955;stroke-width:0.264583" />
      <path
         d="m 72.246197,82.23002 c 1.458913,0 2.645833,1.18692 2.645833,2.645826 0,1.45892 -1.18692,2.64584 -2.645833,2.64584 -1.458912,0 -2.645833,-1.18692 -2.645833,-2.64584 0,-1.458906 1.186921,-2.645826 2.645833,-2.645826 z m 0,-0.52917 c -1.753394,0 -3.175,1.42161 -3.175,3.174996 0,1.7534 1.421606,3.175004 3.175,3.175004 1.753394,0 3.175,-1.421604 3.175,-3.175004 0,-1.753386 -1.421606,-3.174996 -3.175,-3.174996 z"
         id="path844-5"
         style="fill:#ffffff;stroke-width:0.264583" />
      <path
         d="m 81.736483,66.476014 2.175671,2.19635 -2.193872,2.166958 0.967209,0.989009 2.197149,-2.176462 2.174359,2.194745 0.980714,-0.959101 -2.177166,-2.204557 2.195543,-2.17515 -0.95909,-0.980708 -2.203768,2.176378 -2.16775,-2.194671 z"
         id="path833-35"
         style="fill:#ff9955;stroke-width:0.264583" />
      <path
         d="m 91.922615,71.402064 c -1.458823,-0.01626 -2.632443,-1.216329 -2.616186,-2.675148 0.01626,-1.458829 1.216328,-2.63245 2.675151,-2.616193 1.458821,0.01626 2.632443,1.216329 2.616186,2.675158 -0.01626,1.458819 -1.21633,2.63244 -2.675151,2.616183 z m -0.0059,0.529127 c 1.753285,0.01954 3.190644,-1.386142 3.210182,-3.139414 0.01954,-1.753291 -1.386139,-3.190643 -3.139424,-3.210181 -1.753285,-0.01954 -3.190643,1.386132 -3.210182,3.139423 -0.01954,1.753282 1.386139,3.190634 3.139424,3.210172 z"
         id="path844-6"
         style="fill:#ffffff;stroke-width:0.264583" />
      <path
         d="m 96.190583,66.637086 2.175671,2.19635 -2.193866,2.166958 0.967204,0.989009 2.197148,-2.176462 2.17437,2.194745 0.98071,-0.959091 -2.17717,-2.204567 2.19554,-2.17515 -0.95909,-0.980708 -2.203762,2.176378 -2.167752,-2.194671 z"
         id="path833-3-2"
         style="fill:#ff9955;stroke-width:0.264583" />
      <path
         d="m 96.130444,74.764361 2.175671,2.19635 -2.193866,2.166958 0.967204,0.988999 2.197148,-2.176452 2.174369,2.194745 0.98071,-0.959102 -2.17717,-2.204557 2.19555,-2.17515 -0.9591,-0.980708 -2.203761,2.176379 -2.167752,-2.194672 z"
         id="path833-3-6-9"
         style="fill:#ff9955;stroke-width:0.264583" />
      <path
         d="m 96.078657,82.142142 2.175671,2.19635 -2.193865,2.166958 0.967203,0.989009 2.197148,-2.176462 2.174366,2.194745 0.98071,-0.959092 -2.17717,-2.204567 2.19555,-2.17515 -0.9591,-0.980708 -2.203757,2.176379 -2.167753,-2.194672 z"
         id="path833-3-6-7-1"
         style="fill:#ff9955;stroke-width:0.264583" />
      <path
         d="m 91.871436,86.818151 c -1.458822,-0.01626 -2.632443,-1.216329 -2.616186,-2.675148 0.01626,-1.45883 1.216329,-2.63245 2.675151,-2.616193 1.458822,0.01626 2.632443,1.216328 2.616186,2.675158 -0.01626,1.458819 -1.216329,2.63244 -2.675151,2.616183 z m -0.0059,0.529137 c 1.753285,0.01954 3.190644,-1.386143 3.210182,-3.139424 0.01954,-1.753291 -1.386139,-3.190644 -3.139424,-3.210182 -1.753285,-0.01954 -3.190644,1.386133 -3.210182,3.139424 -0.01954,1.753281 1.386138,3.190644 3.139424,3.210182 z"
         id="path844-5-2"
         style="fill:#ffffff;stroke-width:0.264583" />
      <path
         d="m 102.02071,102.68441 -2.200006,-2.17197 2.169586,-2.191273 -0.97817,-0.978166 -2.172756,2.200805 -2.198687,-2.170378 -0.969963,0.969964 2.201598,2.180168 -2.171171,2.19948 0.969963,0.96996 2.179373,-2.2008 2.192073,2.17038 z"
         id="path833-7"
         style="fill:#ff9955;stroke-width:0.264583" />
      <text
         xml:space="preserve"
         style="font-style:normal;font-variant:normal;font-weight:normal;font-stretch:normal;font-size:14.1111px;line-height:1.25;font-family:TSCu_Comic;-inkscape-font-specification:TSCu_Comic;fill:#aaaaff;fill-opacity:1;stroke:none;stroke-width:0.264583"
         x="113.45879"
         y="78.268654"
         id="text1031"><tspan
           sodipodi:role="line"
           id="tspan1029"
           x="113.45879"
           y="78.268654"
           style="font-style:normal;font-variant:normal;font-weight:normal;font-stretch:normal;font-size:14.1111px;font-family:TSCu_Comic;-inkscape-font-specification:TSCu_Comic;fill:#aaaaff;stroke-width:0.264583">SIDE</tspan><tspan
           sodipodi:role="line"
           x="113.45879"
           y="95.907532"
           style="font-style:normal;font-variant:normal;font-weight:normal;font-stretch:normal;font-size:14.1111px;font-family:TSCu_Comic;-inkscape-font-specification:TSCu_Comic;fill:#aaaaff;stroke-width:0.264583"
           id="tspan1033">STACKER</tspan></text>
      <text
         xml:space="preserve"
         style="font-style:normal;font-weight:normal;font-size:3.175px;line-height:1.25;font-family:sans-serif;fill:#d5d5ff;fill-opacity:1;stroke:none;stroke-width:0.264583"
         x="114.00131"
         y="103.22199"
         id="text1037"><tspan
           sodipodi:role="line"
           id="tspan1035"
           x="114.00131"
           y="103.22199"
           style="font-size:3.175px;fill:#d5d5ff;stroke-width:0.264583">@asanchezyali</tspan></text>
    </g>
  </g>
</svg>
